<?xml version="1.0" encoding="UTF-8" standalone="no"?>
<!DOCTYPE svg PUBLIC "-//W3C//DTD SVG 1.1//EN" "http://www.w3.org/Graphics/SVG/1.1/DTD/svg11.dtd">
<svg width="100%" height="100%" viewBox="0 0 500 500" version="1.1" xmlns="http://www.w3.org/2000/svg" xmlns:xlink="http://www.w3.org/1999/xlink" xml:space="preserve" xmlns:serif="http://www.serif.com/" style="fill-rule:evenodd;clip-rule:evenodd;stroke-linejoin:round;stroke-miterlimit:2;">
    <g id="Favorite">
        <circle cx="250" cy="250" r="225" style="fill:rgb(255,221,0);"/>
        <g transform="matrix(1,0,0,1,74.658,76.6517)">
            <path d="M175.342,25L213.304,113.059C214.126,114.964 215.445,116.614 217.124,117.834C218.803,119.054 220.78,119.799 222.846,119.991L318.326,128.884L246.308,192.199C244.749,193.57 243.588,195.334 242.947,197.308C242.306,199.282 242.208,201.392 242.663,203.417L263.711,296.971L181.239,248.044C179.454,246.985 177.417,246.426 175.342,246.426C173.267,246.426 171.23,246.985 169.445,248.044L86.973,296.971L108.021,203.417C108.476,201.392 108.378,199.282 107.737,197.308C107.096,195.334 105.935,193.57 104.376,192.199L32.358,128.884L127.838,119.991C129.904,119.799 131.881,119.054 133.56,117.834C135.239,116.614 136.558,114.964 137.38,113.059L175.342,25Z" style="fill:rgb(255,98,0);"/>
        </g>
    </g>
</svg>
